<svg id="Capa_1" enable-background="new 0 0 512 512" height="512" viewBox="0 0 512 512" width="512" xmlns="http://www.w3.org/2000/svg"><g><path d="m512 76v360h-512v-360l256 135z" fill="#ffdf40"/><path d="m512 76v360h-256v-225z" fill="#ffbe40"/><path d="m512 76-256 195-256-195z" fill="#ffbe40"/><path d="m512 76-256 195v-195z" fill="#ff9f40"/><g><path d="m256 166c-57.9 0-105 47.1-105 105s47.1 105 105 105 105-47.1 105-105-47.1-105-105-105z" fill="#ff7f40"/></g><path d="m361 271c0 57.9-47.1 105-105 105v-210c57.9 0 105 47.1 105 105z" fill="#f25a3c"/><g><path d="m256 226c-24.901 0-45 20.099-45 45 0 24.899 20.099 45 45 45s45-20.101 45-45c0-24.901-20.099-45-45-45z" fill="#f25a3c"/></g><path d="m301 271c0 24.899-20.099 45-45 45v-90c24.901 0 45 20.099 45 45z" fill="#e63a3a"/></g></svg>